<svg xmlns="http://www.w3.org/2000/svg" xmlns:xlink="http://www.w3.org/1999/xlink" width="6.79012cm" height="6cm">
<style type="text/css" >
	<![CDATA[
	/* Text styles */
	.label {
		font-family: Arial;
		font-size: 10pt;
		font-weight: normal;
	}

	.entity {
		font-family: Arial;
		font-size: 12pt;
		font-weight: bold;
	}

	.port {
		font-family: Arial;
		font-size: 12pt;
		font-weight: normal;
	}

	.vector {
		font-family: Arial;
		font-size: 10pt;
		font-weight: normal;
	}

	.generics {
		font-family: Arial;
		font-size: 10pt;
		font-weight: normal;
	}

	/* Text alignment */
	.right {
		dominant-baseline: central;
		text-anchor: end;
	}

	.left {
		dominant-baseline: central;
		text-anchor: start;
	}

	.center {
		dominant-baseline: central;
		text-anchor: middle;
	}

	/* Shape styles */
	.entityBox {
		stroke-width: 0.05cm;
		stroke: #000000;
		fill: #FFFFFF;
	}

	.portBox {
		stroke-width: 0.00cm;
		stroke: #FFF;
		fill: #FFFFFF;
	}

	.labelBox {
		stroke-width: 0.00cm;
		stroke: #000000;
		fill: #FFFFFF;
	}

	.vectorLength {
		stroke-width: 0.00cm;
		fill: #FFFFFF;
	}

	.genericsBox {
		stroke-width: 0.02cm;
		stroke: #BFBFBF;
		fill: #F2F2F2;
	}

	.connector {
		stroke-width: 0.025cm;
		stroke: #000000;
		fill: #FFFFFF;
	}

	]]>
</style>
<g>
<rect class="labelBox" x="1.5cm" y="0.5cm" width="3.79012cm" height="1cm" />
<text class="label center" x="3.39506cm" y="1cm" ></text>
<rect class="entityBox" x="1.475cm" y="1.475cm" width="3.84012cm" height="4.05cm" />
<text class="entity center" x="3.39506cm" y="2cm" >alu</text>
<rect class="portBox" x="1.5cm" y="2.5cm" width="1.89506cm" height="1cm" />
<text class="port left" x="1.75cm" y="3cm" >a_i</text>
<line class="connector" x1="1.5cm" y1="3cm" x2="0.5cm" y2="3cm" />
<line class="connector" x1="0.75cm" y1="3.25cm" x2="1.25cm" y2="2.75cm" />
<text class="vector right" x="1.1cm" y="2.6cm" >3</text>
<rect class="portBox" x="1.5cm" y="3.5cm" width="1.89506cm" height="1cm" />
<text class="port left" x="1.75cm" y="4cm" >b_i</text>
<line class="connector" x1="1.5cm" y1="4cm" x2="0.5cm" y2="4cm" />
<line class="connector" x1="0.75cm" y1="4.25cm" x2="1.25cm" y2="3.75cm" />
<text class="vector right" x="1.1cm" y="3.6cm" >3</text>
<rect class="portBox" x="1.5cm" y="4.5cm" width="1.89506cm" height="1cm" />
<text class="port left" x="1.75cm" y="5cm" >sel_i</text>
<line class="connector" x1="1.5cm" y1="5cm" x2="0.5cm" y2="5cm" />
<line class="connector" x1="0.75cm" y1="5.25cm" x2="1.25cm" y2="4.75cm" />
<text class="vector right" x="1.1cm" y="4.6cm" >2</text>
<rect class="portBox" x="3.39506cm" y="2.5cm" width="1.89506cm" height="1cm" />
<text class="port right" x="5.04012cm" y="3cm" >y_o</text>
<line class="connector" x1="5.29012cm" y1="3cm" x2="6.29012cm" y2="3cm" />
<line class="connector" x1="5.54012cm" y1="3.25cm" x2="6.04012cm" y2="2.75cm" />
<text class="vector left" x="5.69012cm" y="2.6cm" >3</text>
</g>
</svg>
