<svg xmlns="http://www.w3.org/2000/svg" xmlns:xlink="http://www.w3.org/1999/xlink" width="14.8261cm" height="9cm">
<style type="text/css" >
	<![CDATA[
	/* Text styles */
	.label {
		font-family: Arial;
		font-size: 10pt;
		font-weight: normal;
	}

	.entity {
		font-family: Arial;
		font-size: 12pt;
		font-weight: bold;
	}

	.port {
		font-family: Arial;
		font-size: 12pt;
		font-weight: normal;
	}

	.vector {
		font-family: Arial;
		font-size: 10pt;
		font-weight: normal;
	}

	.generics {
		font-family: Arial;
		font-size: 10pt;
		font-weight: normal;
	}

	/* Text alignment */
	.right {
		dominant-baseline: central;
		text-anchor: end;
	}

	.left {
		dominant-baseline: central;
		text-anchor: start;
	}

	.center {
		dominant-baseline: central;
		text-anchor: middle;
	}

	/* Shape styles */
	.entityBox {
		stroke-width: 0.05cm;
		stroke: #000000;
		fill: #FFFFFF;
	}

	.portBox {
		stroke-width: 0.00cm;
		stroke: #FFF;
		fill: #FFFFFF;
	}

	.labelBox {
		stroke-width: 0.00cm;
		stroke: #000000;
		fill: #FFFFFF;
	}

	.vectorLength {
		stroke-width: 0.00cm;
		fill: #FFFFFF;
	}

	.genericsBox {
		stroke-width: 0.02cm;
		stroke: #BFBFBF;
		fill: #F2F2F2;
	}

	.connector {
		stroke-width: 0.025cm;
		stroke: #000000;
		fill: #FFFFFF;
	}

	]]>
</style>
<g>
<rect class="labelBox" x="1.5cm" y="0.5cm" width="11.7245cm" height="1cm" />
<text class="label center" x="7.36226cm" y="1cm" ></text>
<rect class="entityBox" x="1.475cm" y="1.475cm" width="11.7745cm" height="6.05cm" />
<text class="entity center" x="7.36226cm" y="2cm" >noise_generator</text>
<rect class="portBox" x="1.5cm" y="2.5cm" width="5.86226cm" height="1cm" />
<text class="port left" x="1.75cm" y="3cm" >en_pi</text>
<line class="connector" x1="1.5cm" y1="3cm" x2="0.5cm" y2="3cm" />
<rect class="portBox" x="1.5cm" y="3.5cm" width="5.86226cm" height="1cm" />
<text class="port left" x="1.75cm" y="4cm" >en_noise_generator_i</text>
<line class="connector" x1="1.5cm" y1="4cm" x2="0.5cm" y2="4cm" />
<rect class="portBox" x="1.5cm" y="4.5cm" width="5.86226cm" height="1cm" />
<text class="port left" x="1.75cm" y="5cm" >noise_prbsg_length_i</text>
<line class="connector" x1="1.5cm" y1="5cm" x2="0.5cm" y2="5cm" />
<line class="connector" x1="0.75cm" y1="5.25cm" x2="1.25cm" y2="4.75cm" />
<text class="vector right" x="1.1cm" y="4.6cm" >8</text>
<rect class="portBox" x="7.36226cm" y="2.5cm" width="5.86226cm" height="1cm" />
<text class="port right" x="12.9745cm" y="3cm" >prbs_o</text>
<line class="connector" x1="13.2245cm" y1="3cm" x2="14.2245cm" y2="3cm" />
<line class="connector" x1="13.4745cm" y1="3.25cm" x2="13.9745cm" y2="2.75cm" />
<text class="vector left" x="13.6245cm" y="2.6cm" >23</text>
<rect class="portBox" x="7.36226cm" y="3.5cm" width="5.86226cm" height="1cm" />
<text class="port right" x="12.9745cm" y="4cm" >noise_o</text>
<line class="connector" x1="13.2245cm" y1="4cm" x2="14.2245cm" y2="4cm" />
<rect class="portBox" x="7.36226cm" y="4.5cm" width="5.86226cm" height="1cm" />
<text class="port right" x="12.9745cm" y="5cm" >eoc_o</text>
<line class="connector" x1="13.2245cm" y1="5cm" x2="14.2245cm" y2="5cm" />
<rect class="portBox" x="1.5cm" y="6.5cm" width="11.7245cm" height="1cm" />
<text class="port center" x="7.36226cm" y="7cm" >rst_ni</text>
<line class="connector" x1="7.36226cm" y1="7.5cm" x2="7.36226cm" y2="8.5cm" />
<circle class="connector" cx="7.36226cm" cy="7.675cm" r="0.125cm" />
<rect class="portBox" x="1.5cm" y="5.5cm" width="5.86226cm" height="1cm" />
<text class="port left" x="1.75cm" y="6cm" >clk_i</text>
<line class="connector" x1="0.5cm" y1="6cm" x2="1.5cm" y2="6cm" />
<line class="connector" x1="1.5cm" y1="6.15cm" x2="1.7cm" y2="6cm" />
<line class="connector" x1="1.5cm" y1="5.85cm" x2="1.7cm" y2="6cm" />
</g>
</svg>
