<svg xmlns="http://www.w3.org/2000/svg" xmlns:xlink="http://www.w3.org/1999/xlink" width="10.4928cm" height="8cm">
<style type="text/css" >
	<![CDATA[
	/* Text styles */
	.label {
		font-family: Arial;
		font-size: 10pt;
		font-weight: normal;
	}

	.entity {
		font-family: Arial;
		font-size: 12pt;
		font-weight: bold;
	}

	.port {
		font-family: Arial;
		font-size: 12pt;
		font-weight: normal;
	}

	.vector {
		font-family: Arial;
		font-size: 10pt;
		font-weight: normal;
	}

	.generics {
		font-family: Arial;
		font-size: 10pt;
		font-weight: normal;
	}

	/* Text alignment */
	.right {
		dominant-baseline: central;
		text-anchor: end;
	}

	.left {
		dominant-baseline: central;
		text-anchor: start;
	}

	.center {
		dominant-baseline: central;
		text-anchor: middle;
	}

	/* Shape styles */
	.entityBox {
		stroke-width: 0.05cm;
		stroke: #000000;
		fill: #FFFFFF;
	}

	.portBox {
		stroke-width: 0.00cm;
		stroke: #FFF;
		fill: #FFFFFF;
	}

	.labelBox {
		stroke-width: 0.00cm;
		stroke: #000000;
		fill: #FFFFFF;
	}

	.vectorLength {
		stroke-width: 0.00cm;
		fill: #FFFFFF;
	}

	.genericsBox {
		stroke-width: 0.02cm;
		stroke: #BFBFBF;
		fill: #F2F2F2;
	}

	.connector {
		stroke-width: 0.025cm;
		stroke: #000000;
		fill: #FFFFFF;
	}

	]]>
</style>
<g>
<rect class="labelBox" x="1.5cm" y="0.5cm" width="7.49284cm" height="1cm" />
<text class="label center" x="5.24642cm" y="1cm" ></text>
<rect class="entityBox" x="1.475cm" y="1.475cm" width="7.54284cm" height="6.05cm" />
<text class="entity center" x="5.24642cm" y="2cm" >pattern_generator</text>
<rect class="portBox" x="1.5cm" y="2.5cm" width="3.74642cm" height="1cm" />
<text class="port left" x="1.75cm" y="3cm" >en_write_pm</text>
<line class="connector" x1="1.5cm" y1="3cm" x2="0.5cm" y2="3cm" />
<rect class="portBox" x="1.5cm" y="3.5cm" width="3.74642cm" height="1cm" />
<text class="port left" x="1.75cm" y="4cm" >pm_control_i</text>
<line class="connector" x1="1.5cm" y1="4cm" x2="0.5cm" y2="4cm" />
<line class="connector" x1="0.75cm" y1="4.25cm" x2="1.25cm" y2="3.75cm" />
<text class="vector right" x="1.1cm" y="3.6cm" >2</text>
<rect class="portBox" x="1.5cm" y="4.5cm" width="3.74642cm" height="1cm" />
<text class="port left" x="1.75cm" y="5cm" >addr_cnt_i</text>
<line class="connector" x1="1.5cm" y1="5cm" x2="0.5cm" y2="5cm" />
<line class="connector" x1="0.75cm" y1="5.25cm" x2="1.25cm" y2="4.75cm" />
<text class="vector right" x="1.1cm" y="4.6cm" >8</text>
<rect class="portBox" x="1.5cm" y="5.5cm" width="3.74642cm" height="1cm" />
<text class="port left" x="1.75cm" y="6cm" >rxd_data_i</text>
<line class="connector" x1="1.5cm" y1="6cm" x2="0.5cm" y2="6cm" />
<line class="connector" x1="0.75cm" y1="6.25cm" x2="1.25cm" y2="5.75cm" />
<text class="vector right" x="1.1cm" y="5.6cm" >8</text>
<rect class="portBox" x="5.24642cm" y="2.5cm" width="3.74642cm" height="1cm" />
<text class="port right" x="8.74284cm" y="3cm" >pattern_o</text>
<line class="connector" x1="8.99284cm" y1="3cm" x2="9.99284cm" y2="3cm" />
<line class="connector" x1="9.24284cm" y1="3.25cm" x2="9.74284cm" y2="2.75cm" />
<text class="vector left" x="9.39284cm" y="2.6cm" >8</text>
<rect class="portBox" x="1.5cm" y="6.5cm" width="3.74642cm" height="1cm" />
<text class="port left" x="1.75cm" y="7cm" >clk_i</text>
<line class="connector" x1="0.5cm" y1="7cm" x2="1.5cm" y2="7cm" />
<line class="connector" x1="1.5cm" y1="6.85cm" x2="1.7cm" y2="7cm" />
<line class="connector" x1="1.5cm" y1="7.15cm" x2="1.7cm" y2="7cm" />
</g>
</svg>
