<svg xmlns="http://www.w3.org/2000/svg" xmlns:xlink="http://www.w3.org/1999/xlink" width="9.96388cm" height="8cm">
<style type="text/css" >
	<![CDATA[
	/* Text styles */
	.label {
		font-family: Arial;
		font-size: 10pt;
		font-weight: normal;
	}

	.entity {
		font-family: Arial;
		font-size: 12pt;
		font-weight: bold;
	}

	.port {
		font-family: Arial;
		font-size: 12pt;
		font-weight: normal;
	}

	.vector {
		font-family: Arial;
		font-size: 10pt;
		font-weight: normal;
	}

	.generics {
		font-family: Arial;
		font-size: 10pt;
		font-weight: normal;
	}

	/* Text alignment */
	.right {
		dominant-baseline: central;
		text-anchor: end;
	}

	.left {
		dominant-baseline: central;
		text-anchor: start;
	}

	.center {
		dominant-baseline: central;
		text-anchor: middle;
	}

	/* Shape styles */
	.entityBox {
		stroke-width: 0.05cm;
		stroke: #000000;
		fill: #FFFFFF;
	}

	.portBox {
		stroke-width: 0.00cm;
		stroke: #FFF;
		fill: #FFFFFF;
	}

	.labelBox {
		stroke-width: 0.00cm;
		stroke: #000000;
		fill: #FFFFFF;
	}

	.vectorLength {
		stroke-width: 0.00cm;
		fill: #FFFFFF;
	}

	.genericsBox {
		stroke-width: 0.02cm;
		stroke: #BFBFBF;
		fill: #F2F2F2;
	}

	.connector {
		stroke-width: 0.025cm;
		stroke: #000000;
		fill: #FFFFFF;
	}

	]]>
</style>
<g>
<rect class="labelBox" x="1.5cm" y="0.5cm" width="6.96388cm" height="1cm" />
<text class="label center" x="4.98194cm" y="1cm" ></text>
<rect class="entityBox" x="1.475cm" y="1.475cm" width="7.01388cm" height="5.05cm" />
<text class="entity center" x="4.98194cm" y="2cm" >pwm_generator</text>
<rect class="portBox" x="1.5cm" y="2.5cm" width="3.48194cm" height="1cm" />
<text class="port left" x="1.75cm" y="3cm" >en_pi</text>
<line class="connector" x1="1.5cm" y1="3cm" x2="0.5cm" y2="3cm" />
<rect class="portBox" x="1.5cm" y="3.5cm" width="3.48194cm" height="1cm" />
<text class="port left" x="1.75cm" y="4cm" >pwm_width_i</text>
<line class="connector" x1="1.5cm" y1="4cm" x2="0.5cm" y2="4cm" />
<line class="connector" x1="0.75cm" y1="4.25cm" x2="1.25cm" y2="3.75cm" />
<text class="vector right" x="1.1cm" y="3.6cm" >8</text>
<rect class="portBox" x="4.98194cm" y="2.5cm" width="3.48194cm" height="1cm" />
<text class="port right" x="8.21388cm" y="3cm" >pwm_o</text>
<line class="connector" x1="8.46388cm" y1="3cm" x2="9.46388cm" y2="3cm" />
<rect class="portBox" x="1.5cm" y="5.5cm" width="6.96388cm" height="1cm" />
<text class="port center" x="4.98194cm" y="6cm" >rst_ni</text>
<line class="connector" x1="4.98194cm" y1="6.5cm" x2="4.98194cm" y2="7.5cm" />
<circle class="connector" cx="4.98194cm" cy="6.675cm" r="0.125cm" />
<rect class="portBox" x="1.5cm" y="4.5cm" width="3.48194cm" height="1cm" />
<text class="port left" x="1.75cm" y="5cm" >clk_i</text>
<line class="connector" x1="0.5cm" y1="5cm" x2="1.5cm" y2="5cm" />
<line class="connector" x1="1.5cm" y1="5.15cm" x2="1.7cm" y2="5cm" />
<line class="connector" x1="1.5cm" y1="4.85cm" x2="1.7cm" y2="5cm" />
</g>
</svg>
